<svg version="1.1" xmlns="http://www.w3.org/2000/svg" xmlns:xlink="http://www.w3.org/1999/xlink" x="0px" y="0px" viewBox="0 0 479.6 479.5" style="enable-background:new 0 0 479.6 479.5;" xml:space="preserve">
<g>
	<path class="logo" fill="#ffffff" d="M244.3,479.5l-8.7-10.8l-8-11l-8.9-10.3l-8.9-10.7l-8.1-10.8l-12.3-12.6l13.8-11.2l10.8-8.4l10.4-9.3l11-7.7
		l9.9-9.7l10.8-8.4l3.9,4.9l-10.6,8.3l-10.1,9.8l-11.1,7.7l-10.2,9.1l-10.8,8.4l-8.4,6.9l7.9,8.2l8.2,10.9l8.7,10.5l9.1,10.5l8,11
		l8.6,10.6L244.3,479.5z M198.8,476.1l-6.5-12.2l-5.8-12.3l-6.8-11.7l-6.7-12.2l-5.9-12.1l-9.6-14.7l15.7-8.4l12.2-6.2l12-7.1
		l12.3-5.5l11.5-7.6l12.2-6.2l2.8,5.6l-12,6.1l-11.8,7.7l-12.4,5.5l-11.8,7l-12.2,6.2l-9.6,5.1l6.2,9.5l6,12.2l6.6,11.9l6.9,12.1
		l5.8,12.4l6.4,12L198.8,476.1z M289.7,474.3l-10.6-8.9l-9.9-9.3l-10.6-8.4l-10.8-8.8l-10-9.1l-14.4-10.1l11.4-13.6l9-10.3l8.5-11.1
		l9.4-9.7l7.9-11.4l9-10.3l4.7,4.1l-8.9,10.2l-8,11.6l-9.4,9.7l-8.3,10.9l-9.1,10.3l-7,8.3l9.3,6.5l10.1,9.1l10.5,8.6l10.9,8.6
		l10,9.3l10.4,8.7L289.7,474.3z M154.8,464.1l-4.1-13.2l-3.3-13.2l-4.4-12.8l-4.3-13.2l-3.5-13l-6.7-16.3l17-5.3l13.1-3.7l13.1-4.7
		l13.1-3l12.8-5.3l13.1-3.8l1.7,6l-13,3.8l-13,5.4l-13.2,3.1l-12.9,4.7l-13.2,3.7l-10.4,3.2l4.3,10.5l3.6,13.1l4.2,12.9l4.5,13.1
		l3.3,13.2l4,13L154.8,464.1z M333.2,460.5l-12.1-6.7l-11.5-7.2l-12-6.2l-12.2-6.6l-11.5-7l-16.1-7.2l8.6-15.5l6.9-11.8l6.2-12.5
		l7.4-11.3l5.6-12.6l6.9-11.8l5.4,3.2l-6.8,11.7l-5.7,12.9l-7.4,11.3l-6.1,12.3l-6.9,11.8l-5.3,9.5l10.4,4.7l11.6,7.1l12,6.5
		l12.3,6.4l11.5,7.3l11.9,6.6L333.2,460.5z M113.8,444l-1.5-13.8l-0.8-13.6l-1.9-13.4l-1.7-13.8l-1-13.5l-3.5-17.3l17.7-2l13.6-1.2
		l13.8-2.2l13.5-0.5l13.5-2.8l13.6-1.2l0.6,6.2l-13.5,1.2l-13.8,2.8l-13.5,0.5l-13.6,2.2l-13.6,1.2l-10.8,1.2l2.2,11.2l1,13.6
		l1.7,13.5l1.9,13.8l0.8,13.6l1.5,13.5L113.8,444z M373.4,438.8l-13.2-4.3l-12.7-4.9l-13-3.8l-13.3-4.2l-12.7-4.7l-17.2-4L297,396
		l4.6-12.9l3.8-13.4l5.1-12.5l3.1-13.5l4.5-12.9l5.9,2.1l-4.5,12.7l-3.2,13.7l-5.2,12.5l-3.7,13.2l-4.6,12.9l-3.4,10.3l11.1,2.6
		l12.8,4.7l13,4.1l13.3,3.9l12.7,5l12.9,4.2L373.4,438.8z M83.6,417l-6.2-0.5l1.1-13.8l1.8-13.5l0.7-13.5l0.9-13.9l1.6-13.4
		l-0.1-17.6l17.7,1.4l13.6,1.4l13.9,0.5l13.3,2l13.6-0.2l13.8,1.4l-0.6,6.2l-13.4-1.3l-13.8,0.2l-13.6-2.1l-13.7-0.5l-13.6-1.4
		l-10.8-0.9l0.1,11.2l-1.6,13.7L87.2,376l-0.7,13.9l-1.8,13.5L83.6,417z M408.7,409.9l-13.8-1.8l-13.4-2.5l-13.5-1.3l-13.8-1.6
		l-13.3-2.2l-17.6-0.7l2.2-17.6l2.1-13.5l1.1-13.9l2.7-13.2l0.5-13.8l2-13.5l6.2,0.9l-2,13.4l-0.5,14.1l-2.7,13.3l-1.1,13.7
		l-2.1,13.5l-1.4,10.8l11.4,0.5l13.4,2.2l13.5,1.5l13.8,1.4L396,402l13.5,1.7L408.7,409.9z M52.8,384.2l-6-1.7l3.7-13.4l4.3-12.9
		l3.2-13.2l3.5-13.4l4.1-12.9l3.2-17.3l17.1,4.7l13.1,4l13.6,3.1l12.7,4.5l13.6,2.4l13.1,3.9l-1.8,6l-12.9-3.9l-13.8-2.5l-12.8-4.6
		l-13.4-3l-13.1-4l-10.5-2.9l-2.1,11.2l-4.1,13l-3.5,13.2l-3.3,13.5l-4.3,12.9L52.8,384.2z M352.2,381.1l-1.1-17.7l-0.5-13.7
		l-1.5-13.7l0.1-13.7l-2.1-13.7l-0.6-13.7l6.3-0.3l0.6,13.5l2.2,13.6l-0.1,13.8l1.5,13.6l0.5,13.7l0.7,10.8l11.2-1.7l13.6-0.4
		l13.6-1l13.8-1.3l13.6-0.1l13.6-0.9l0.4,6.2l-13.8,0.9l-13.6,0.1l-13.5,1.3l-13.9,1.1l-13.5,0.4L352.2,381.1z M377,357.3l-4.5-17.2
		l-3.1-13.3l-4.1-13.3l-2.4-13.3l-4.7-13l-3.2-13.3l6.1-1.5l3.1,13.1l4.7,13.2l2.4,13.3l4.1,13.1l3.1,13.3l2.7,10.5l10.7-3.8
		l13.3-2.9l13.1-3.6l13.3-3.9l13.4-2.7l13.2-3.4l1.6,6.1l-13.4,3.5l-13.3,2.7l-13,3.8l-13.4,3.7l-13.2,2.9L377,357.3z M28.8,346.3
		l-5.6-2.8l6.2-12.4l6.7-11.8l5.6-12.3l6-12.5l6.4-11.9l6.4-16.4l15.9,7.9l12.1,6.4l12.8,5.6l11.6,6.8l12.9,5l12.1,6.3l-2.9,5.6
		l-12-6.2l-13.1-5.1l-11.7-6.9L85.7,286l-12.1-6.4l-9.7-4.8l-4.2,10.6l-6.5,12l-5.9,12.3l-5.8,12.6l-6.7,11.9L28.8,346.3z
		 M396.8,329.1l-7.7-16l-5.6-12.5l-6.6-12.3l-4.9-12.6l-7.1-11.9l-5.6-12.5l5.7-2.6l5.6,12.3l7.2,12.1l4.9,12.6l6.5,12.1l5.6,12.5
		l4.7,9.8l9.8-5.7l12.5-5.4l12.2-6l12.4-6.3l12.6-5.2l12.3-5.9l2.7,5.7l-12.5,6l-12.6,5.2l-12.1,6.2l-12.5,6.1l-12.4,5.3
		L396.8,329.1z M12.4,304.5l-5-3.8l8.4-11l8.8-10.3l7.9-11l8.3-11.2l8.6-10.4l9.4-14.9l14.2,10.8l10.7,8.5L95,259l10.1,8.9l11.7,7.3
		l10.7,8.5l-3.9,4.9l-10.6-8.4l-11.9-7.5l-10.1-9L79.7,256L69,247.5l-8.7-6.6l-6.1,9.6L45.6,261l-8.1,10.9l-8.1,11.3l-8.8,10.4
		L12.4,304.5z M410.9,297.8l-10.6-14.3l-7.8-11.2l-8.8-10.9l-7.2-11.4l-9.2-10.3l-7.9-11.2l5.1-3.6l7.8,11l9.3,10.5l7.2,11.5
		l8.6,10.7l7.9,11.2l6.5,8.7l8.5-7.5l11.3-7.7l10.9-8.2l10.9-8.6l11.4-7.5l11-8.1l3.7,5l-11.2,8.2l-11.4,7.4l-10.7,8.4l-11.1,8.4
		l-11.2,7.6L410.9,297.8z M116.5,265.8l-8.8-10.2L97.4,246l-8.3-10.7l-9.6-9.8L70.6,215l-7.3-8.1l-7.8,8.3l-10.5,8.7l-10,9.2
		L25,242.7l-10.6,8.5l-10.1,9.1L0,255.6l10.3-9.2l10.6-8.5l9.8-9.3l10.2-9.4l10.4-8.6l12-12.9l11.9,13.2l8.9,10.4l9.8,10l8.2,10.7
		l10.1,9.4l8.9,10.4L116.5,265.8z M418.9,264.3l-13.1-12.1l-9.8-9.5l-10.7-9l-9.2-9.8l-11-8.4l-9.9-9.5l4.3-4.5l9.7,9.4l11.2,8.6
		l9.3,9.9l10.5,8.8l9.8,9.5l8,7.4l7-9l9.6-9.7l9.1-10.1l9.1-10.5l9.8-9.5l9.2-10l4.6,4.2l-9.4,10.2l-9.7,9.5l-8.9,10.2l-9.3,10.3
		l-9.5,9.6L418.9,264.3z M113.7,242l-6.7-11.7l-8.3-11.4l-6.1-12.1L85,195.4l-6.7-11.9l-5.6-9.3l-9.2,6.7l-11.9,6.6l-11.6,7.1
		L28.2,202l-12.1,6.4l-11.7,7L1.3,210l11.9-7.1l12-6.3l11.4-7.3l11.8-7.3l11.8-6.5l14.3-10.3l9.1,15.2l6.7,11.9l7.7,11.6l6.1,12
		l8.2,11.2l6.8,11.9L113.7,242z M420.3,229.9l-15.1-9.4l-11.4-7.5l-12.2-6.8l-10.9-7.9l-12.4-6.2l-11.5-7.4l3.4-5.3l11.3,7.3
		l12.6,6.3l11,8l12,6.7l11.5,7.5l9.2,5.7l5.1-10.1l7.6-11.3l7-11.7l7-12l7.8-11.2l7.2-11.6l5.3,3.3l-7.3,11.8l-7.8,11.1l-6.8,11.7
		l-7.2,11.9l-7.5,11.2L420.3,229.9z M115.5,218.2l-4.4-12.8l-6-12.7l-3.7-13L96.1,167l-4.4-13L88,143.8l-10.3,4.8l-13,4.2L52,157.6
		l-12.9,5.1l-13,4l-12.8,4.7l-2.1-5.9l13-4.7l13-3.9l12.6-5l13-4.9l12.8-4.1l16-7.5l6.1,16.7l4.4,13l5.4,12.9l3.7,13l5.9,12.5
		l4.4,12.9L115.5,218.2z M415.3,195.8l-16.6-6.3l-12.6-5.2l-13.2-4.4l-12.2-5.7l-13.3-3.7l-12.7-5.1l2.3-5.8l12.5,5.1l13.5,3.8
		l12.3,5.7l13,4.3l12.7,5.2l10.2,3.9l3.1-10.9l5.3-12.5l4.7-12.8l4.6-13.1l5.6-12.5l4.9-12.7l5.9,2.2l-4.9,13l-5.5,12.4l-4.5,12.8
		l-4.8,13l-5.3,12.4L415.3,195.8z M121.7,195.1l-1.9-13.4l-3.5-13.6l-1.2-13.5l-2.8-13.4l-1.8-13.6l-1.7-10.7l-11,2.8l-13.5,1.7
		l-13.4,2.3l-13.7,2.6l-13.6,1.4l-13.4,2.2l-1-6.2l13.7-2.2l13.5-1.4l13.3-2.5l13.7-2.4l13.4-1.6l17.1-4.3l2.8,17.6l1.8,13.5
		l2.8,13.7l1.2,13.4l3.4,13.4l1.9,13.6L121.7,195.1z M138.5,173.9l-6.3-0.3l0.7-13.5l-0.9-13.8l1.4-13.7l-0.2-13.6l0.8-13.8
		l0.3-10.9l-11.2,0.6l-13.8-1l-13.6-0.3l-13.9,0l-13.6-1.2l-13.6-0.4l0.2-6.3l13.9,0.4l13.5,1.2l13.6,0l13.9,0.3l13.5,0.9l17.6-1
		l-0.6,17.8l-0.8,13.6l0.2,13.8l-1.4,13.6l0.8,13.6L138.5,173.9z M403.8,163.4l-17.5-3.1l-13.4-2.7l-13.8-1.8l-13.1-3.3l-13.8-1.1
		l-13.4-2.6l1.2-6.1l13.3,2.6l14,1.2l13.1,3.3l13.6,1.8l13.4,2.7l10.7,1.9l1-11.3l2.9-13.3l2.2-13.4l2-13.8l3.1-13.3l2.4-13.4
		l6.2,1.1l-2.4,13.7l-3.1,13.2l-2,13.4l-2.2,13.7l-2.8,13.2L403.8,163.4z M152.7,156l-6.1-1.5l3.2-13.1l1.9-14l3.9-13l2.4-13.5
		l3.3-13.3l2.4-10.6l-11.3-1.5L139.4,72l-13.3-2.8l-13.6-2.7l-13.1-3.7l-13.3-3l1.4-6.1l13.5,3.1l13.1,3.7l13.3,2.6l13.6,2.9l13,3.5
		l17.5,2.4l-3.9,17.3l-3.3,13.3l-2.5,13.7l-3.9,12.9l-1.8,13.7L152.7,156z M170.1,141l-5.7-2.6l5.7-12.3l4.5-13.4l6.3-12l4.9-12.8
		l5.8-12.4l4.4-10L185.1,62l-12.3-5.9l-12.5-5.3l-12.9-5.2l-12.2-6.1L122.8,34l2.5-5.7l12.7,5.6l12.1,6.1l12.6,5.1l12.8,5.4
		l12.2,5.9l16.7,5.6l-7.1,16.3l-5.8,12.4l-5,13l-6.3,11.9l-4.4,13.1L170.1,141z M314.1,135.4l-13.9-0.1l0-6.3l13.5,0.1l13.7-1.5
		l13.8,0.8l13.6-0.9l13.8,0.1l10.9-0.2l-1.2-11.1l0.3-13.8L378.3,89l-0.6-13.8l0.5-13.8L378,47.9l6.3-0.1l0.2,13.8l0,0.1l-0.5,13.6
		l0.6,13.5l0.4,13.8l-0.3,13.6l1.8,17.5l-17.8,0.3l-13.7-0.1l-13.7,0.9l-13.6-0.8L314.1,135.4z M190,129.7l-5.1-3.7l7.9-11l6.9-12.3
		l8.5-10.6l7.3-11.7l8-11.1l6.2-9l-9.9-5.6l-10.9-8.1l-11.3-7.6l-11.7-7.5L175,23.3l-11.2-7.7l3.5-5.2l11.4,7.9l10.8,8.3l11.4,7.3
		l11.5,7.7l10.8,8.1l15.3,8.7l-10.1,14.7l-8,11.1L213.2,96l-8.4,10.5l-6.8,12.1L190,129.7z M279.4,125.8l-1.2-6.2l13.3-2.5L305,113
		l13.4-1.8l13.3-3.4l13.5-2.5l10.6-2.2l-3.3-10.9l-2.3-13.4l-3-13.3l-3.2-13.5L342,38.5l-2.8-13.3l6.1-1.3l2.8,13.6l2.1,13.4
		l3.2,13.2l3,13.6l2.3,13.3l5.1,16.9l-17.4,3.7l-13.4,2.5l-13.5,3.5l-13.4,1.8l-13.2,4.1L279.4,125.8z M210.9,121.5l-4.4-4.5
		l9.9-9.7l10.2-9l9.4-9.8l9.8-9.9l10-9.1l6.4-7.7l-7.1-7.3l-9.3-10l-10.2-9.5l-8.7-10.3l-10.6-8.9L206.7,6l4.5-4.3l9.3,9.8l10.7,9.1
		l8.8,10.3l10.1,9.3l9.4,10l11.1,11.3L260.1,74l-10.1,9.2l-9.6,9.7l-9.6,10l-10.2,9L210.9,121.5z M257.2,120.3l-2.3-5.8l12.6-5
		l12.4-6.6l12.8-4.3l12.4-5.9l12.8-5l10-4.2l-5.3-10.1l-4.8-12.7l-5.4-12.5l-5.7-12.7l-4.6-12.8l-5.3-12.5l5.8-2.4l5.4,12.8
		l4.6,12.8l5.6,12.3l5.5,12.7l4.8,12.6l8.2,15.6l-16.4,6.9l-12.7,5l-12.6,6l-12.8,4.3l-12.2,6.5L257.2,120.3z M234.3,119.1l-3.4-5.3
		l11.4-7.3l11-8.8l11.8-6.7l11.1-8.1l11.6-7.3l9-6l-7.1-8.9l-7.1-11.6l-7.7-11.2l-8-11.3L260,14.8l-7.5-11.3l5.2-3.5l7.7,11.5
		l6.9,11.7l7.8,11.1l7.8,11.5l7.1,11.5L306,71l-14.8,9.9l-11.6,7.3l-11.3,8.2l-11.7,6.6l-10.8,8.7L234.3,119.1z"/>
</g>
</svg>
